# Wavafront OBJ file of BodyParts3D
# BodyParts3D, Copyright(C) 2010-2011 The Database Center for Life Science licensed under CC Attribution-Share Alike 2.1 Japan.
vn -0.958871 0.109157 -0.262013
v -5.22502 -111.912 1222.14
vn -0.938227 0.288914 0.19042
v -5.36763 -111.677 1224.25
vn -0.999457 -0.0127801 -0.0303643
v -5.56974 -112.847 1223.61
vn -0.91678 -0.275676 -0.288995
v -5.37065 -113.437 1222.99
vn -0.959803 -0.276926 0.0457268
v -5.46592 -113.463 1223.89
vn -0.944817 -0.0609321 0.321883
v -5.38 -112.899 1224.81
vn -0.819458 -0.569028 -0.0685216
v -5.03497 -114.376 1223.56
vn -0.872606 -0.407975 0.268543
v -5.2464 -113.797 1224.53
vn -0.884538 0.196272 -0.423166
v -4.29903 -110.096 1220.41
vn -0.764234 0.577585 -0.286953
v -3.60845 -108.921 1220.15
vn -0.662292 -0.325931 -0.67464
v -3.05717 -111.299 1218.57
vn -0.442365 0.895925 0.0403941
v -2.53392 -107.898 1220.79
vn -0.81976 0.5727 0.00292446
v -4.40146 -109.542 1221.93
vn -0.832644 -0.190184 -0.520129
v -4.56904 -112.337 1220.93
vn -0.691821 -0.568164 -0.445616
v -4.61226 -114.356 1222.36
vn -0.301502 -0.810677 -0.501896
v -3.79657 -114.794 1222.04
vn -0.382759 0.805202 0.452929
v -3.52091 -109.534 1224.33
vn -0.739691 0.588245 0.32684
v -4.78833 -110.789 1224.58
vn -0.716742 -0.657339 0.232779
v -4.69129 -114.67 1224.45
vn -0.522853 -0.852297 -0.0146555
v -4.12029 -115.239 1223.83
vn -0.508234 -0.749525 0.424159
v -4.10311 -114.911 1225.04
vn -0.220365 -0.888078 0.403431
v -3.22249 -115.304 1225.03
vn -0.215409 -0.976372 -0.0172469
v -3.23746 -115.59 1223.82
vn -0.0634943 0.719378 0.691711
v -2.66754 -110.447 1225.8
vn -0.752491 0.39864 0.524256
v -4.73155 -111.452 1225.46
vn -0.758498 0.0839195 0.646249
v -4.82598 -112.359 1225.73
vn -0.554686 0.607797 0.568248
v -4.18872 -110.812 1225.48
vn -0.522431 0.347228 0.77878
v -4.22461 -111.497 1225.98
vn -0.315946 0.58815 0.744485
v -3.59402 -110.929 1225.99
vn -0.3999 -0.0212524 0.916312
v -3.68932 -112.748 1226.56
vn -0.211693 0.261305 0.941757
v -3.04314 -111.882 1226.62
vn -0.0677779 0.517229 0.853159
v -2.69574 -110.986 1226.25
vn -0.797995 -0.256532 0.54534
v -4.9327 -113.544 1225.4
vn -0.692398 -0.51026 0.510118
v -4.62468 -114.16 1225.37
vn -0.591054 -0.276648 0.757707
v -4.33463 -113.596 1226.01
vn -0.491727 -0.544653 0.67938
v -4.06619 -114.207 1225.86
vn -0.278726 -0.705738 0.651342
v -3.498 -114.829 1225.63
vn -0.267927 -0.424561 0.864849
v -3.45216 -113.955 1226.33
vn -0.766629 0.267793 -0.583581
v -2.18212 -109.201 1217.44
vn -0.629045 0.685968 -0.365718
v -1.64001 -108.038 1217.74
vn -0.234119 -0.799279 -0.553482
v -1.90364 -113.068 1219.41
vn 0.144726 -0.91793 -0.369404
v -1.02637 -113.525 1220.29
vn 0.00596076 0.898465 0.439005
v -1.33683 -107.985 1222.29
vn 0.174874 0.750331 0.637513
v -1.72986 -109.752 1224.93
vn 0.541026 -0.828233 0.146018
v -1.11734 -115.261 1224.13
vn 0.760416 -0.642041 -0.0977279
v -0.196675 -114.308 1222.97
vn 0.207745 -0.939046 -0.273923
v -2.3371 -115.607 1223.22
vn 0.118309 -0.93447 0.335811
v -2.32958 -115.463 1224.81
vn 0.115338 0.225596 0.967369
v -2.44404 -111.915 1226.67
vn 0.213208 0.541726 0.813065
v -2.09652 -111.016 1226.23
vn 0.472716 0.237074 0.848726
v -1.24353 -111.937 1226.35
vn 0.554719 0.473316 0.684295
v -0.897142 -111.059 1225.67
vn 0.00075955 -0.158679 0.98733
v -2.507 -113.116 1226.73
vn 0.0721785 -0.639205 0.765642
v -2.28468 -114.607 1226.03
vn 0.469884 -0.652565 0.594448
v -1.38526 -114.641 1225.68
vn 0.466466 -0.190159 0.863857
v -1.30811 -113.169 1226.44
vn -0.706708 0.471639 -0.527371
v 2.51348 -107.199 1213.31
vn -0.708193 0.0384628 -0.70497
v 2.29354 -108.378 1212.97
vn -0.531207 0.830525 -0.167475
v 2.03094 -106.778 1214.83
vn -0.381726 -0.673567 -0.632924
v 1.80348 -111.118 1214.38
vn 0.483481 0.630514 0.607206
v 0.116692 -108.911 1222.88
vn 0.726398 0.241874 0.643306
v 1.59416 -109.246 1221.65
vn 0.837583 -0.461881 0.291753
v 0.987321 -112.227 1221.84
vn 0.811864 -0.144211 0.565757
v 1.75912 -110.756 1221.59
vn 0.532452 -0.83897 -0.112355
v -0.098695 -113.339 1220.9
vn 0.764472 0.315919 0.561941
v 0.246598 -110.149 1223.71
vn 0.811341 0.0970503 0.576461
v 0.063803 -112.294 1225.14
vn 0.94094 -0.295817 0.164695
v 0.590271 -112.548 1223.03
vn 0.923661 -0.0667729 0.377347
v 0.678927 -111.662 1223.36
vn 0.864569 -0.358167 0.352473
v 0.118613 -113.487 1224.8
vn -0.866452 0.425558 -0.261076
v 4.47728 -104.837 1211.6
vn -0.781778 0.607985 0.138481
v 4.54695 -104.583 1212.81
vn -0.784827 0.541807 -0.300818
v 3.07437 -106.617 1213.04
vn -0.782357 0.216632 -0.583941
v 3.49517 -107.5 1211.85
vn -0.494901 -0.385292 -0.77886
v 3.06839 -109.911 1212.68
vn -0.170237 -0.688874 -0.704607
v 4.24001 -110.484 1212.6
vn -0.577981 0.790814 0.201376
v 3.98324 -105.496 1213.98
vn -0.00713561 -0.893513 -0.448981
v 4.19638 -111.317 1213.77
vn -0.260438 0.947507 0.185478
v 3.85412 -106.383 1216.65
vn 0.524555 0.534235 0.662899
v 4.12471 -107.762 1218.4
vn -0.554378 0.148142 -0.818974
v 7.04784 -102.765 1208.66
vn -0.790818 0.578007 -0.201282
v 7.63141 -99.8252 1209.68
vn -0.843043 0.357052 -0.402235
v 5.69763 -103.047 1210.16
vn -0.693319 0.0559127 -0.718458
v 5.75351 -104.534 1209.6
vn -0.395972 -0.179071 -0.900633
v 6.32196 -105.151 1209.23
vn -0.571686 -0.15986 -0.804748
v 5.02724 -106.927 1210.38
vn -0.142701 -0.475763 -0.86792
v 6.49889 -107.508 1210.01
vn 0.202221 -0.771529 -0.6032
v 6.37255 -109.918 1212.03
vn -0.38758 0.811411 0.437485
v 5.39569 -105.629 1215.48
vn 0.29115 0.440382 0.849291
v 7.16193 -106.32 1215.61
vn 0.387779 -0.905897 -0.170232
v 5.70971 -111.102 1214.09
vn 0.356488 0.583036 0.730058
v 5.63442 -106.806 1216.64
vn 0.698387 0.0430823 0.714423
v 6.119 -109.024 1217.12
vn -0.564738 0.439513 -0.698498
v 9.68085 -98.3819 1208.31
vn 0.0171023 -0.253219 -0.967258
v 9.46163 -102.565 1207.92
vn 0.487961 -0.629228 -0.604952
v 8.02397 -107.068 1209.91
vn -0.216189 0.378151 0.900147
v 9.61 -99.7337 1212.69
vn -0.270095 0.552607 0.788463
v 7.69743 -101.835 1213.21
vn 0.112159 0.295878 0.948618
v 8.86783 -102.431 1213.57
vn 0.62895 -0.708355 -0.320397
v 7.60768 -109.279 1212.05
vn 0.15103 0.398687 0.904565
v 7.9052 -103.602 1214.13
vn 0.499927 0.177664 0.847649
v 8.44103 -104.842 1214.4
vn 0.732409 -0.639756 0.233002
v 7.2726 -109.941 1214.73
vn -0.271706 0.178375 -0.945705
v 11.5111 -97.851 1207.58
vn -0.586855 0.574041 0.571032
v 11.2779 -96.1657 1211.31
vn -0.30174 0.287978 0.908857
v 12.1644 -96.8504 1212.37
vn 0.0868887 0.139071 0.986463
v 10.1733 -100.449 1212.96
vn 0.486438 -0.309663 0.816998
v 11.9444 -101.048 1212.4
vn 0.333365 0.137071 0.93278
v 10.0511 -102.781 1213.2
vn 0.735359 -0.260748 0.625506
v 11.2783 -103.682 1211.35
vn 0.362784 -0.360734 -0.85922
v 14.7582 -98.947 1208.52
vn -0.672949 0.727175 0.135485
v 15.145 -91.5675 1210.58
vn -0.642967 0.649357 -0.406115
v 13.8666 -93.0319 1209.33
vn 0.751496 -0.652447 -0.0978066
v 12.7374 -101.905 1209.92
vn 0.71231 -0.573776 0.404222
v 12.9725 -101.358 1211.14
vn 0.0864469 -0.0824284 0.992841
v 14.6077 -96.0863 1212.65
vn -0.317904 0.434659 -0.84262
v 16.9503 -91.5122 1208.18
vn -0.508863 0.710186 -0.486513
v 17.3339 -90.0944 1209.14
vn 0.134325 -0.0697361 -0.988481
v 15.2478 -95.3384 1207.49
vn -0.496877 0.465365 0.732495
v 17.3547 -90.8113 1212.41
vn -0.29342 0.221211 0.930038
v 16.2943 -92.566 1212.61
vn -0.0837562 -0.0151883 0.99637
v 16.8617 -93.2041 1212.81
vn 0.610237 -0.572022 0.548089
v 16.9982 -96.3318 1211.62
vn 0.415901 -0.384901 0.82394
v 15.4447 -97.3135 1212.1
vn 0.36677 -0.247455 -0.896797
v 19.2506 -93.4791 1208.5
vn 0.681046 -0.729451 -0.0638584
v 20.0626 -93.8821 1210.21
vn 0.466089 -0.534863 0.704757
v 19.1022 -94.4742 1211.39
vn -0.206584 0.0533252 0.976975
v 18.4693 -91.19 1212.98
vn 0.256566 -0.384246 0.886865
v 18.0446 -93.5622 1212.68
vn -0.163 0.54209 -0.82436
v 20.6998 -88.7545 1208.75
vn -0.0256702 0.281573 -0.959196
v 20.3226 -90.2205 1208.26
vn -0.498245 0.834387 -0.235691
v 20.7781 -87.2606 1210.44
vn -0.575429 0.714075 0.398721
v 22.0096 -86.6902 1212.56
vn 0.122501 -0.38748 0.913703
v 21.181 -91.037 1213.13
vn 0.278047 0.100688 -0.955276
v 24.6405 -88.0794 1209.33
vn -0.205259 0.773259 -0.599949
v 24.7869 -85.2858 1210.82
vn 0.582535 -0.805663 -0.107517
v 24.8216 -90.3562 1211.24
vn -0.436525 0.300021 0.848194
v 23.1974 -86.956 1213.75
vn -0.0346638 -0.422458 0.905719
v 24.6019 -88.8167 1214
vn 0.415784 -0.77972 0.468147
v 24.5155 -90.4654 1212.14
vn 0.578903 -0.626083 -0.522391
v 26.4042 -88.8191 1210.65
vn -0.472615 0.881022 0.0208392
v 25.4308 -84.4641 1212.95
vn 0.0180522 -0.667949 0.743988
v 27.0742 -87.4994 1214.88
vn 0.152713 0.590996 -0.792087
v 28.4514 -84.1503 1211.6
vn -0.263796 0.949604 -0.169302
v 28.8157 -82.9315 1213.61
vn 0.428431 -0.894148 0.130181
v 27.613 -88.6832 1212.81
vn -0.534449 0.700234 0.473324
v 27.8824 -83.5437 1214.79
vn -0.459314 -0.0195894 0.888058
v 29.026 -84.65 1216.44
vn -0.259131 -0.5414 0.799836
v 29.5446 -86.2198 1216.2
vn 0.50563 -0.0386958 -0.861882
v 31.7136 -84.9585 1212.64
vn 0.469759 -0.871103 -0.143201
v 30.8372 -87.0564 1213.77
vn 0.114016 -0.898955 0.422942
v 30.7151 -86.8139 1215.61
vn -0.524195 -0.227747 0.82058
v 31.7506 -84.2524 1218.18
vn 0.498437 0.354353 -0.791198
v 33.902 -83.3259 1214.24
vn 0.178188 0.812835 -0.554571
v 33.065 -82.1004 1214.84
vn 0.60811 -0.528923 -0.591982
v 34.7367 -84.5966 1214.95
vn 0.110381 -0.967435 0.227784
v 33.7591 -86.0537 1216.51
vn -0.655019 0.300216 0.693413
v 32.7428 -82.5159 1218.61
vn -0.188081 -0.800166 0.569526
v 32.5681 -85.8492 1217.42
vn -0.344461 0.897562 0.27519
v 34.9054 -81.3764 1219.38
vn -0.00187372 0.98311 -0.183004
v 35.2137 -81.2264 1217.58
vn 0.688025 0.189524 -0.700502
v 37.2239 -82.9956 1217.01
vn 0.428932 0.72987 -0.532265
v 37.2994 -81.5537 1218.18
vn 0.0504808 -0.997568 0.0480653
v 36.4964 -85.4113 1218.41
vn -0.477832 -0.662812 0.576504
v 35.2963 -85.3819 1219.37
vn -0.637111 -0.41151 0.651727
v 35.7501 -83.6835 1221.7
vn 0.18666 0.972351 -0.140326
v 38.5248 -81.1013 1220.59
vn 0.580193 0.684962 -0.440685
v 39.6974 -81.6553 1220.58
vn -0.0011655 0.992719 0.120446
v 39.1239 -81.1347 1222.4
vn -0.252559 0.892541 0.37361
v 39.1129 -81.3438 1223.29
vn -0.525932 -0.751102 0.399051
v 38.0266 -84.8755 1223.16
vn -0.151207 -0.987822 0.0366537
v 38.599 -85.4171 1221.95
vn -0.673955 -0.130316 0.727188
v 39.573 -84.0292 1225.86
vn 0.544379 -0.636683 -0.546156
v 40.1503 -84.4784 1220.65
vn 0.312593 0.948311 -0.0546937
v 41.2055 -81.5401 1223.89
vn 0.273115 -0.900014 -0.339681
v 40.1055 -85.3319 1221.95
vn -0.637919 0.0844007 0.765464
v 39.9035 -83.4556 1226.15
vn -0.414101 0.670589 0.615492
v 40.2504 -82.5675 1226.02
vn 0.325754 -0.0317434 0.944921
v 40.2346 -82.869 1226.07
vn 0.192217 0.881744 0.430789
v 41.4925 -81.7966 1225.38
vn 0.432851 -0.114892 0.894114
v 41.481 -82.0153 1225.58
vn -0.588712 -0.497271 0.637291
v 39.8391 -84.6839 1225.88
vn -0.46146 -0.807746 0.366879
v 40.2873 -85.5482 1225.25
vn 0.395191 -0.313775 0.863348
v 40.1252 -84.9567 1225.77
vn -0.0924353 -0.982151 0.163813
v 40.9771 -85.8988 1224.63
vn 0.121787 -0.984243 -0.128195
v 41.2774 -85.8994 1224.33
vn 0.351263 -0.821638 0.448915
v 41.3251 -85.8819 1224.64
vn 0.774001 0.223311 -0.592499
v 43.0891 -83.5306 1223.52
vn 0.565833 -0.780846 -0.264788
v 42.1994 -85.5045 1223.75
vn 0.73268 -0.298468 -0.611635
v 43.0764 -84.1304 1223.5
vn 0.962169 0.266571 0.0563141
v 43.2693 -84.1509 1223.8
vn 0.560682 0.826776 -0.0455758
v 42.6756 -82.1494 1224.47
vn 0.564306 0.627104 0.536936
v 42.696 -82.351 1224.76
vn 0.537533 -0.216052 0.815095
v 42.5188 -85.1413 1224.06
vn 0.263922 0.76868 0.582646
v 3.85412 -106.383 1216.65
vn 0.173233 0.632485 0.754953
v 5.39569 -105.629 1215.48
vn 0.706893 -0.326421 0.627496
v 10.0511 -102.781 1213.2
vn 0.795327 -0.596561 -0.107565
v 11.2783 -103.682 1211.35
vn 0.697197 -0.612269 -0.372885
v 14.7582 -98.947 1208.52
vn 0.63468 -0.62874 -0.449296
v 19.2506 -93.4791 1208.5
vn 0.626411 -0.769584 0.12389
v 19.1022 -94.4742 1211.39
vn 0.314905 -0.171266 -0.933543
v 20.3226 -90.2205 1208.26
vn 0.525175 -0.760995 -0.380892
v 33.7591 -86.0537 1216.51
vn 0.443321 -0.796022 -0.412087
v 36.4964 -85.4113 1218.41
vn -0.0361911 -0.983345 0.178112
v 35.2963 -85.3819 1219.37
vn -0.0672944 0.167965 0.983493
v 39.9035 -83.4556 1226.15
vn 0.428299 -0.184013 0.884703
v 39.9035 -83.4556 1226.15
vn 0.10648 0.15854 0.981594
v 40.2504 -82.5675 1226.02
vn -0.0397522 0.677494 0.734453
v 41.481 -82.0153 1225.58
vn 0.567576 0.540996 0.620629
v 41.481 -82.0153 1225.58
vn 0.156079 -0.223699 0.96208
v 39.8391 -84.6839 1225.88
vn 0.149974 -0.737527 0.658454
v 40.2873 -85.5482 1225.25
vn -0.390814 -0.66571 0.635684
v 40.1252 -84.9567 1225.77
vn 0.959364 0.282074 0.00744969
v 43.0891 -83.5306 1223.52
vn 0.840995 0.0010769 -0.541042
v 43.2693 -84.1509 1223.8
vn 0.580959 -0.232056 0.780152
v 43.2693 -84.1509 1223.8
vn 0.755806 -0.586857 -0.290442
v 43.2693 -84.1509 1223.8
vn 0.962169 0.266571 0.0563141
v 42.6756 -82.1494 1224.47
vn 0.539101 -0.236455 0.808368
v 42.696 -82.351 1224.76
vn 0.962437 0.250366 0.10503
v 42.696 -82.351 1224.76
vn 0.706154 -0.701837 0.0936565
v 42.5188 -85.1413 1224.06
f 13//13 1//1 2//2
f 9//9 1//1 13//13
f 1//1 14//14 4//4
f 1//1 4//4 3//3
f 14//14 15//15 4//4
f 1//1 3//3 2//2
f 3//3 6//6 2//2
f 26//26 2//2 6//6
f 25//25 18//18 2//2
f 26//26 25//25 2//2
f 3//3 5//5 6//6
f 3//3 4//4 5//5
f 4//4 7//7 5//5
f 5//5 8//8 6//6
f 7//7 19//19 8//8
f 5//5 7//7 8//8
f 19//19 34//34 8//8
f 34//34 33//33 8//8
f 6//6 8//8 33//33
f 25//25 26//26 28//28
f 9//9 39//39 11//11
f 12//12 59//59 40//40
f 12//12 40//40 10//10
f 39//39 10//10 40//40
f 39//39 9//9 10//10
f 1//1 9//9 14//14
f 11//11 14//14 9//9
f 13//13 10//10 9//9
f 12//12 13//13 17//17
f 12//12 10//10 13//13
f 43//43 12//12 17//17
f 11//11 15//15 14//14
f 4//4 15//15 7//7
f 11//11 16//16 15//15
f 11//11 41//41 16//16
f 13//13 18//18 17//17
f 13//13 2//2 18//18
f 18//18 27//27 17//17
f 17//17 44//44 43//43
f 7//7 20//20 19//19
f 34//34 19//19 21//21
f 20//20 7//7 15//15
f 21//21 19//19 20//20
f 34//34 21//21 36//36
f 22//22 21//21 20//20
f 37//37 21//21 22//22
f 15//15 16//16 20//20
f 16//16 23//23 20//20
f 47//47 23//23 16//16
f 23//23 22//22 20//20
f 48//48 23//23 47//47
f 48//48 22//22 23//23
f 44//44 17//17 24//24
f 28//28 26//26 30//30
f 27//27 25//25 28//28
f 27//27 18//18 25//25
f 27//27 28//28 29//29
f 28//28 30//30 31//31
f 29//29 17//17 27//27
f 31//31 29//29 28//28
f 24//24 17//17 29//29
f 53//53 31//31 30//30
f 32//32 24//24 29//29
f 29//29 31//31 32//32
f 49//49 31//31 53//53
f 32//32 31//31 49//49
f 49//49 53//53 56//56
f 33//33 26//26 6//6
f 35//35 26//26 33//33
f 33//33 34//34 35//35
f 35//35 30//30 26//26
f 34//34 36//36 35//35
f 30//30 35//35 38//38
f 35//35 36//36 38//38
f 37//37 36//36 21//21
f 36//36 37//37 38//38
f 22//22 54//54 37//37
f 48//48 54//54 22//22
f 53//53 30//30 38//38
f 57//57 40//40 59//59
f 40//40 57//57 39//39
f 11//11 39//39 58//58
f 57//57 58//58 39//39
f 79//79 59//59 12//12
f 79//79 12//12 43//43
f 61//61 195//195 43//43
f 42//42 16//16 41//41
f 16//16 42//42 47//47
f 65//65 47//47 42//42
f 46//46 47//47 65//65
f 44//44 61//61 43//43
f 52//52 61//61 44//44
f 52//52 67//67 66//66
f 66//66 67//67 69//69
f 45//45 55//55 48//48
f 55//55 54//54 48//48
f 47//47 46//46 45//45
f 70//70 55//55 45//45
f 45//45 48//48 47//47
f 24//24 50//50 44//44
f 50//50 24//24 32//32
f 51//51 49//49 56//56
f 50//50 52//52 44//44
f 50//50 32//32 49//49
f 51//51 50//50 49//49
f 51//51 52//52 50//50
f 52//52 51//51 67//67
f 56//56 67//67 51//51
f 53//53 38//38 54//54
f 37//37 54//54 38//38
f 55//55 56//56 54//54
f 56//56 53//53 54//54
f 57//57 59//59 73//73
f 58//58 75//75 11//11
f 60//60 11//11 75//75
f 60//60 41//41 11//11
f 41//41 60//60 78//78
f 78//78 42//42 41//41
f 91//91 42//42 78//78
f 91//91 65//65 42//42
f 61//61 80//80 195//195
f 62//62 61//61 66//66
f 62//62 69//69 64//64
f 61//61 62//62 80//80
f 80//80 62//62 93//93
f 46//46 65//65 63//63
f 68//68 46//46 63//63
f 69//69 68//68 63//63
f 69//69 63//63 64//64
f 66//66 61//61 52//52
f 69//69 62//62 66//66
f 56//56 55//55 70//70
f 56//56 70//70 67//67
f 70//70 45//45 46//46
f 68//68 69//69 70//70
f 68//68 70//70 46//46
f 69//69 67//67 70//70
f 83//83 84//84 74//74
f 71//71 83//83 74//74
f 84//84 86//86 74//74
f 71//71 73//73 72//72
f 73//73 77//77 72//72
f 98//98 72//72 77//77
f 73//73 74//74 57//57
f 58//58 57//57 74//74
f 73//73 71//71 74//74
f 86//86 58//58 74//74
f 75//75 58//58 86//86
f 75//75 87//87 76//76
f 87//87 75//75 86//86
f 75//75 76//76 60//60
f 77//77 89//89 98//98
f 77//77 73//73 59//59
f 59//59 79//79 77//77
f 89//89 77//77 79//79
f 78//78 60//60 76//76
f 92//92 195//195 80//80
f 92//92 80//80 93//93
f 195//195 92//92 196//196
f 65//65 103//103 63//63
f 91//91 103//103 65//65
f 103//103 93//93 63//63
f 93//93 64//64 63//63
f 62//62 64//64 93//93
f 94//94 104//104 81//81
f 95//95 85//85 81//81
f 82//82 72//72 105//105
f 72//72 83//83 71//71
f 82//82 83//83 72//72
f 82//82 81//81 83//83
f 94//94 81//81 82//82
f 83//83 81//81 84//84
f 85//85 84//84 81//81
f 87//87 86//86 85//85
f 85//85 86//86 84//84
f 87//87 85//85 95//95
f 98//98 105//105 72//72
f 76//76 87//87 88//88
f 91//91 88//88 100//100
f 76//76 88//88 78//78
f 101//101 98//98 90//90
f 98//98 196//196 90//90
f 101//101 90//90 102//102
f 93//93 103//103 110//110
f 103//103 91//91 100//100
f 78//78 88//88 91//91
f 90//90 196//196 92//92
f 92//92 93//93 90//90
f 81//81 104//104 95//95
f 119//119 95//95 104//104
f 82//82 113//113 94//94
f 96//96 87//87 95//95
f 87//87 96//96 88//88
f 100//100 88//88 96//96
f 105//105 98//98 97//97
f 99//99 97//97 98//98
f 98//98 101//101 99//99
f 99//99 102//102 109//109
f 99//99 107//107 97//97
f 109//109 107//107 99//99
f 96//96 198//198 100//100
f 198//198 103//103 100//100
f 102//102 99//99 101//101
f 110//110 102//102 93//93
f 110//110 197//197 102//102
f 93//93 102//102 90//90
f 104//104 94//94 117//117
f 119//119 104//104 117//117
f 119//119 111//111 95//95
f 96//96 95//95 111//111
f 82//82 105//105 112//112
f 120//120 112//112 105//105
f 198//198 96//96 114//114
f 198//198 114//114 115//115
f 120//120 105//105 106//106
f 106//106 105//105 97//97
f 97//97 107//107 106//106
f 106//106 107//107 116//116
f 116//116 107//107 108//108
f 108//108 107//107 109//109
f 197//197 110//110 108//108
f 113//113 117//117 94//94
f 117//117 131//131 119//119
f 111//111 119//119 125//125
f 113//113 112//112 118//118
f 112//112 113//113 82//82
f 114//114 96//96 199//199
f 108//108 124//124 116//116
f 108//108 123//123 124//124
f 115//115 123//123 108//108
f 116//116 124//124 129//129
f 108//108 110//110 115//115
f 117//117 113//113 118//118
f 118//118 130//130 117//117
f 202//202 125//125 119//119
f 114//114 199//199 126//126
f 126//126 115//115 114//114
f 123//123 115//115 126//126
f 106//106 116//116 122//122
f 122//122 121//121 106//106
f 121//121 120//120 106//106
f 122//122 116//116 129//129
f 127//127 129//129 124//124
f 127//127 140//140 129//129
f 123//123 127//127 124//124
f 131//131 117//117 130//130
f 200//200 126//126 199//199
f 133//133 112//112 120//120
f 112//112 132//132 118//118
f 130//130 118//118 132//132
f 201//201 123//123 126//126
f 133//133 120//120 138//138
f 138//138 120//120 128//128
f 120//120 121//121 128//128
f 128//128 121//121 122//122
f 134//134 122//122 129//129
f 139//139 128//128 134//134
f 128//128 122//122 134//134
f 134//134 129//129 140//140
f 130//130 135//135 131//131
f 135//135 125//125 202//202
f 200//200 141//141 126//126
f 133//133 132//132 112//112
f 201//201 126//126 140//140
f 138//138 128//128 139//139
f 138//138 139//139 148//148
f 135//135 141//141 125//125
f 136//136 130//130 132//132
f 135//135 130//130 136//136
f 136//136 132//132 142//142
f 132//132 133//133 142//142
f 126//126 141//141 137//137
f 147//147 142//142 133//133
f 147//147 133//133 138//138
f 147//147 138//138 148//148
f 137//137 140//140 126//126
f 135//135 136//136 144//144
f 137//137 146//146 140//140
f 146//146 137//137 141//141
f 150//150 141//141 135//135
f 145//145 136//136 142//142
f 147//147 145//145 142//142
f 134//134 140//140 139//139
f 140//140 143//143 139//139
f 143//143 148//148 139//139
f 150//150 135//135 144//144
f 156//156 141//141 150//150
f 144//144 136//136 145//145
f 151//151 141//141 156//156
f 141//141 151//151 146//146
f 152//152 146//146 151//151
f 146//146 143//143 140//140
f 146//146 152//152 143//143
f 147//147 160//160 145//145
f 145//145 160//160 161//161
f 153//153 148//148 149//149
f 149//149 148//148 143//143
f 158//158 148//148 153//153
f 155//155 144//144 145//145
f 161//161 155//155 145//145
f 152//152 149//149 143//143
f 159//159 149//149 152//152
f 152//152 157//157 159//159
f 157//157 152//152 151//151
f 147//147 148//148 158//158
f 147//147 158//158 160//160
f 153//153 149//149 159//159
f 144//144 155//155 154//154
f 144//144 154//154 150//150
f 156//156 203//203 151//151
f 166//166 153//153 159//159
f 158//158 153//153 166//166
f 159//159 165//165 166//166
f 157//157 205//205 159//159
f 156//156 154//154 162//162
f 156//156 150//150 154//154
f 167//167 161//161 160//160
f 163//163 161//161 167//167
f 161//161 163//163 155//155
f 163//163 154//154 155//155
f 154//154 163//163 162//162
f 167//167 168//168 163//163
f 164//164 205//205 157//157
f 204//204 203//203 156//156
f 170//170 169//169 160//160
f 160//160 169//169 167//167
f 165//165 171//171 166//166
f 172//172 205//205 164//164
f 160//160 158//158 178//178
f 175//175 168//168 167//167
f 162//162 163//163 168//168
f 176//176 204//204 156//156
f 174//174 176//176 156//156
f 175//175 167//167 169//169
f 160//160 178//178 170//170
f 171//171 205//205 172//172
f 176//176 172//172 164//164
f 183//183 171//171 172//172
f 178//178 158//158 177//177
f 158//158 166//166 173//173
f 177//177 158//158 173//173
f 166//166 182//182 173//173
f 166//166 171//171 182//182
f 177//177 173//173 182//182
f 190//190 156//156 162//162
f 190//190 162//162 188//188
f 190//190 174//174 156//156
f 168//168 188//188 162//162
f 192//192 168//168 175//175
f 186//186 172//172 176//176
f 186//186 185//185 172//172
f 189//189 176//176 174//174
f 189//189 186//186 176//176
f 169//169 180//180 175//175
f 208//208 206//206 179//179
f 179//179 207//207 194//194
f 207//207 184//184 194//194
f 179//179 181//181 208//208
f 194//194 181//181 179//179
f 169//169 170//170 180//180
f 180//180 170//170 178//178
f 209//209 180//180 178//178
f 210//210 193//193 180//180
f 181//181 194//194 219//219
f 182//182 171//171 183//183
f 182//182 183//183 213//213
f 211//211 184//184 207//207
f 184//184 212//212 187//187
f 185//185 183//183 172//172
f 185//185 187//187 212//212
f 194//194 184//184 187//187
f 187//187 185//185 186//186
f 186//186 189//189 187//187
f 187//187 189//189 221//221
f 168//168 192//192 188//188
f 191//191 214//214 218//218
f 190//190 188//188 215//215
f 191//191 218//218 220//220
f 190//190 189//189 174//174
f 219//219 194//194 216//216
f 217//217 189//189 190//190
f 221//221 189//189 217//217
f 180//180 192//192 175//175
f 180//180 193//193 192//192
