# Wavafront OBJ file of BodyParts3D
# BodyParts3D, Copyright(C) 2010-2011 The Database Center for Life Science licensed under CC Attribution-Share Alike 2.1 Japan.
vn -0.905109 -0.110687 0.410519
v -24.7195 -118.354 1319.43
vn -0.867497 -0.42742 0.254483
v -23.9539 -121.354 1318.93
vn -0.846532 0.25322 0.468256
v -24.493 -114.854 1319.43
vn -0.971722 0.165681 0.168244
v -24.7273 -115.354 1318.93
vn -0.988644 0.134831 0.066359
v -25.8211 -114.854 1305.93
vn -0.908319 0.407513 0.0942878
v -24.8992 -111.354 1305.93
vn -0.944296 -0.327758 -0.0296499
v -26.2313 -118.402 1286.93
vn -0.87928 -0.334455 -0.339126
v -26.2313 -117.984 1285.93
vn -0.831132 -0.471841 -0.294254
v -25.7273 -119.354 1286.43
vn -0.621197 -0.389273 -0.680133
v -25.408 -119.354 1285.93
vn -0.663673 -0.470733 -0.581333
v -25.7313 -118.854 1285.88
vn -0.804661 -0.591877 -0.0469359
v -24.7664 -121.354 1287.93
vn -0.384421 -0.376951 -0.842691
v -25.2313 -118.854 1285.55
vn -0.468161 -0.245473 -0.848863
v -24.7313 -119.854 1285.64
vn -0.675704 -0.544227 -0.497234
v -23.9539 -121.854 1285.93
vn -0.999387 -0.0221103 0.0271332
v -26.7039 -115.354 1288.93
vn -0.98469 -0.109571 -0.135575
v -26.6492 -116.354 1286.43
vn -0.953976 0.160366 -0.253402
v -26.4773 -112.854 1286.43
vn -0.924081 0.374774 -0.0749554
v -25.907 -110.854 1287.43
vn -0.737453 0.348452 -0.578571
v -25.9617 -111.854 1285.93
vn -0.360169 0.265483 -0.894314
v -24.7313 -110.854 1285.54
vn -0.842684 0.537847 -0.0245741
v -24.8445 -108.854 1287.43
vn -0.827875 0.480183 -0.289908
v -24.657 -108.854 1286.43
vn -0.75349 0.657066 0.0227265
v -24.0555 -107.854 1288.93
vn -0.738833 0.63937 -0.212914
v -23.9773 -107.854 1286.43
vn -0.606972 0.47754 -0.635248
v -24.0688 -108.354 1285.93
vn -0.0861154 -0.2353 -0.9681
v -24.7313 -118.354 1285.26
vn -0.246182 -0.140614 -0.958969
v -24.2313 -119.354 1285.33
vn -0.827587 -0.071539 -0.55676
v -26.1784 -117.354 1285.43
vn -0.348969 -0.221481 -0.910586
v -25.7313 -117.854 1285.1
vn -0.597584 0.186647 -0.77978
v -25.7313 -112.354 1285.41
vn -0.202154 0.155059 -0.967001
v -25.2313 -112.354 1285.24
vn -0.482863 -0.32152 0.814536
v -22.2313 -122.854 1320.08
vn -0.730317 -0.639001 0.241485
v -21.9383 -124.354 1318.93
vn -0.550084 -0.698546 0.457647
v -20.646 -125.354 1319.43
vn -0.612101 -0.789906 0.0371688
v -20.7313 -125.475 1318.43
vn -0.260737 -0.416364 0.871009
v -20.2313 -124.854 1320.03
vn -0.508961 -0.844813 0.165071
v -20.1095 -125.854 1318.93
vn -0.241383 -0.0229005 0.97016
v -23.7313 -117.354 1320.13
vn -0.461095 0.105006 0.881116
v -23.7313 -114.854 1320.07
vn -0.806184 0.523674 0.275377
v -23.368 -111.854 1318.93
vn -0.542331 0.430274 0.721624
v -22.3863 -111.354 1319.93
vn -0.108732 0.0936021 0.989655
v -21.7313 -111.354 1320.13
vn -0.593692 0.712172 0.374621
v -21.5245 -109.854 1318.93
vn -0.73597 0.661386 0.144627
v -22.8602 -109.854 1313.93
vn -0.539158 0.822322 0.181922
v -21.2313 -108.71 1315.43
vn -0.759837 0.644188 0.0875687
v -23.4539 -108.854 1304.93
vn -0.536627 0.836875 0.108039
v -20.7313 -106.327 1303.93
vn -0.632714 -0.745136 -0.21082
v -22.2313 -123.928 1286.93
vn -0.421235 -0.792349 -0.441298
v -21.2313 -124.467 1286.43
vn -0.382032 -0.535286 -0.75334
v -21.2313 -123.854 1285.62
vn -0.442133 -0.893925 -0.0736005
v -20.7313 -125.022 1287.93
vn -0.646185 0.763177 -0.00236644
v -22.2313 -105.999 1287.43
vn -0.527907 0.759691 -0.379716
v -21.7313 -105.741 1286.43
vn -0.457725 0.886913 -0.0622274
v -20.7313 -105.007 1287.93
vn -0.332648 -0.207527 -0.919934
v -23.7313 -120.854 1285.3
vn -0.00711719 -0.0511096 -0.998668
v -23.7313 -117.854 1285.22
vn -0.0516112 0.0605999 -0.996827
v -23.7313 -111.354 1285.25
vn -0.245581 0.15951 -0.956162
v -23.2313 -108.854 1285.3
vn -0.323515 0.478743 -0.816176
v -21.2313 -106.368 1285.43
vn -0.333226 -0.838497 0.431141
v -18.8778 -126.354 1319.43
vn -0.425438 -0.90317 0.0573314
v -19.2313 -126.389 1318.43
vn -0.117058 -0.487742 0.865104
v -17.7313 -126.354 1319.85
vn -0.190454 -0.980203 0.0541265
v -17.2313 -127.092 1317.93
vn -0.0232025 -0.0730817 0.997056
v -19.2313 -124.854 1320.11
vn -0.25515 0.469853 0.845066
v -19.2313 -109.354 1320.1
vn -0.349089 0.837482 0.420429
v -19.2313 -108.694 1319.43
vn -0.157425 0.940783 0.300242
v -17.7313 -108.092 1318.93
vn -0.033499 0.743871 0.667483
v -16.2313 -108.354 1319.96
vn -0.314479 0.933116 0.174348
v -18.7313 -106.342 1309.93
vn 0.00326666 0.983412 0.181356
v -16.2313 -105.702 1308.93
vn -0.205782 0.973927 0.0954969
v -17.2313 -104.561 1299.93
vn -0.18985 -0.953834 -0.23272
v -16.7313 -126.311 1286.93
vn -0.284553 -0.491221 -0.823245
v -18.7313 -124.854 1285.55
vn -0.411455 0.683831 -0.602561
v -19.7313 -105.109 1285.93
vn -0.300099 0.924816 -0.233785
v -17.7313 -103.772 1285.93
vn -0.0450942 -0.0547047 -0.997484
v -18.7313 -123.854 1285.24
vn -0.170032 -0.534328 -0.827999
v -17.2313 -125.354 1285.23
vn -0.00400675 -0.0457836 -0.998943
v -16.7313 -124.854 1285.18
vn -0.168933 0.176708 -0.969658
v -18.7313 -105.854 1285.27
vn -0.15442 0.728172 -0.667772
v -17.7313 -104.354 1285.13
vn -0.108849 -0.937923 0.32932
v -15.7313 -127.069 1319.43
vn 0.0599093 -0.990337 0.125077
v -14.7313 -127.225 1318.93
vn 0.133325 -0.567515 0.812497
v -13.2505 -126.854 1319.43
vn 0.370743 -0.927908 0.039194
v -12.2313 -126.819 1317.93
vn 0.0898758 -0.384587 0.918703
v -12.7313 -125.854 1320.04
vn 0.0583529 0.943096 0.327361
v -15.7313 -108.108 1319.43
vn 0.0431464 0.186123 0.981579
v -15.2313 -108.854 1320.14
vn 0.230763 0.79859 0.55588
v -12.7313 -108.647 1319.43
vn 0.235081 0.943834 0.232196
v -12.7313 -107.741 1316.43
vn 0.1495 0.984119 0.0957029
v -14.2313 -104.358 1298.43
vn 0.137508 -0.985934 -0.0950083
v -14.2313 -126.342 1286.93
vn 0.143258 -0.84321 -0.518145
v -14.2313 -126.108 1285.93
vn -0.0340551 0.999066 0.0266035
v -15.7313 -103.522 1286.43
vn -0.0312962 0.926025 -0.376164
v -15.7313 -103.538 1285.93
vn 0.146342 0.98319 -0.109188
v -13.7313 -103.632 1285.93
vn 0.324099 0.926614 -0.190647
v -12.7313 -103.897 1285.93
vn 0.299487 0.953266 0.0398856
v -12.2313 -104.03 1287.43
vn 0.446904 0.860769 -0.243627
v -12.2313 -104.108 1285.93
vn 0.0929427 -0.365377 -0.926208
v -14.2313 -125.354 1285.28
vn 0.106799 0.265162 -0.958271
v -13.2313 -104.354 1285.1
vn 0.13643 0.796617 -0.588887
v -13.2313 -103.913 1285.43
vn 0.512368 0.472946 -0.716799
v -11.8415 -104.854 1285.43
vn 0.449499 0.619862 -0.643211
v -12.2313 -104.354 1285.33
vn 0.356704 -0.534903 0.765925
v -10.7313 -125.921 1319.43
vn 0.661915 -0.72092 0.205287
v -9.23125 -125.092 1318.93
vn 0.12417 -0.172315 0.977184
v -8.23125 -122.854 1320.13
vn 0.326278 0.561816 0.760201
v -9.73125 -110.354 1319.9
vn 0.440417 0.844908 0.303583
v -10.7313 -109.194 1318.93
vn 0.601946 -0.798459 0.0111389
v -9.73125 -125.577 1316.93
vn 0.619093 0.772218 0.142836
v -8.73125 -108.71 1311.43
vn 0.347546 0.924211 0.158261
v -11.7313 -106.038 1306.43
vn 0.478526 0.873896 0.0855518
v -10.2313 -105.733 1298.43
vn 0.341867 -0.517295 -0.784559
v -9.73125 -123.854 1285.51
vn 0.499434 -0.823435 -0.269298
v -9.23125 -124.303 1286.43
vn 0.425513 0.902977 -0.059757
v -11.7313 -104.21 1286.93
vn 0.563751 0.731226 -0.384048
v -11.7313 -104.421 1285.93
vn 0.557972 0.800707 -0.218026
v -9.73125 -105.241 1286.93
vn 0.061916 -0.0908545 -0.993938
v -10.7313 -123.354 1285.21
vn 0.236149 0.136034 -0.962148
v -11.7313 -105.354 1285.31
vn 0.732766 -0.446236 0.513739
v -6.23126 -121.354 1320.07
vn 0.830611 -0.5399 0.136356
v -6.0711 -121.354 1319.43
vn 0.0639966 0.0011656 0.997949
v -5.73126 -118.854 1320.15
vn 0.935509 -0.327145 0.133417
v -5.31329 -119.854 1318.93
vn 0.989392 -0.13992 0.0390584
v -4.89922 -118.354 1317.93
vn 0.222361 0.0867598 0.971097
v -6.23126 -114.854 1320.11
vn 0.955798 0.0449736 0.290564
v -5.03204 -116.854 1319.93
vn 0.655293 0.694972 0.295981
v -7.73126 -111.421 1319.43
vn 0.195852 0.191806 0.961692
v -7.23126 -113.354 1320.13
vn 0.769532 0.622017 0.14462
v -6.43047 -112.354 1317.93
vn 0.329053 0.233277 0.915044
v -6.23126 -113.854 1319.95
vn 0.859341 0.453146 0.237049
v -5.99297 -113.354 1318.93
vn 0.805083 -0.593125 0.00670375
v -6.84454 -122.854 1316.43
vn 0.996759 0.0721896 0.0355051
v -4.7586 -116.354 1314.93
vn 0.958154 0.279575 0.0614645
v -5.08672 -114.354 1314.43
vn 0.914925 0.398041 0.0669037
v -5.8211 -112.354 1312.93
vn 0.822171 -0.56924 -0.00090908
v -6.73126 -121.926 1303.93
vn 0.942561 -0.334014 0.00362023
v -5.61797 -119.854 1300.93
vn 0.999456 0.0251749 0.0213167
v -4.6961 -115.354 1298.93
vn 0.684751 -0.727703 -0.0395552
v -7.23522 -122.854 1288.43
vn 0.694004 -0.60364 -0.392399
v -6.57891 -121.854 1286.43
vn 0.817541 -0.575292 -0.0258131
v -6.03204 -121.354 1288.43
vn 0.897979 -0.440038 -0.000504434
v -5.18047 -119.854 1286.43
vn 0.576194 -0.281559 -0.767284
v -4.73126 -117.354 1285.81
vn 0.988461 -0.1452 0.0431535
v -4.08672 -115.854 1285.93
vn 0.916182 0.171064 -0.36242
v -4.09454 -114.354 1285.93
vn 0.941523 0.324509 -0.0907087
v -4.58672 -111.854 1286.93
vn 0.617914 0.64453 -0.450292
v -7.73126 -106.992 1286.43
vn 0.731401 0.681573 0.0226034
v -7.12579 -107.354 1288.43
vn 0.868229 0.496163 0.000812293
v -5.62579 -109.354 1287.93
vn 0.812905 0.483075 -0.325306
v -5.73126 -109.354 1286.48
vn 0.382639 -0.248551 -0.889837
v -6.73126 -120.354 1285.29
vn 0.0153483 -0.0297093 -0.999441
v -6.23126 -115.854 1285.22
vn 0.196281 -0.187587 -0.962437
v -5.23126 -116.354 1285.31
vn 0.0676913 -0.173011 -0.982591
v -4.73126 -115.854 1285.22
vn 0.340311 0.228694 -0.912079
v -6.23126 -110.354 1285.31
vn -0.193429 0.0691088 -0.978677
v -17.7313 -104.354 1285.13
vn 0.0312058 -0.510778 0.859146
v -15.7313 -127.069 1319.43
vn 0.210511 -0.94303 0.257644
v -13.2505 -126.854 1319.43
vn 0.43777 -0.891121 0.119415
v -10.7313 -125.921 1319.43
vn 0.0641378 -0.0459272 0.996884
v -6.23126 -121.354 1320.07
vn 0.685762 -0.160722 0.709858
v -5.73126 -118.854 1320.15
vn 0.295362 0.0897884 0.951157
v -5.03204 -116.854 1319.93
vn 0.381709 0.402879 0.831858
v -7.73126 -111.421 1319.43
vn 0.800604 0.444365 0.401961
v -6.23126 -113.854 1319.95
vn 0.67381 -0.337759 -0.657191
v -5.18047 -119.854 1286.43
vn 0.74623 -0.179047 -0.641157
v -4.08672 -115.854 1285.93
vn 0.679397 -0.0308201 -0.733123
v -4.73126 -115.854 1285.22
f 1//1 33//33 39//39
f 2//2 33//33 1//1
f 1//1 39//39 40//40
f 40//40 3//3 1//1
f 3//3 4//4 1//1
f 40//40 42//42 3//3
f 42//42 41//41 3//3
f 2//2 1//1 7//7
f 1//1 4//4 5//5
f 4//4 6//6 5//5
f 4//4 3//3 6//6
f 1//1 5//5 16//16
f 12//12 49//49 36//36
f 22//22 6//6 47//47
f 47//47 24//24 22//22
f 16//16 17//17 1//1
f 5//5 6//6 19//19
f 6//6 22//22 19//19
f 15//15 49//49 12//12
f 17//17 8//8 7//7
f 8//8 11//11 9//9
f 9//9 7//7 8//8
f 11//11 8//8 30//30
f 7//7 9//9 12//12
f 9//9 11//11 10//10
f 10//10 11//11 13//13
f 27//27 13//13 30//30
f 13//13 11//11 30//30
f 15//15 9//9 10//10
f 10//10 13//13 14//14
f 14//14 13//13 28//28
f 9//9 15//15 12//12
f 56//56 15//15 10//10
f 1//1 17//17 7//7
f 5//5 18//18 16//16
f 16//16 18//18 17//17
f 17//17 18//18 29//29
f 8//8 17//17 29//29
f 5//5 19//19 18//18
f 19//19 20//20 18//18
f 29//29 18//18 31//31
f 31//31 18//18 20//20
f 22//22 23//23 19//19
f 23//23 20//20 19//19
f 31//31 20//20 21//21
f 24//24 25//25 22//22
f 22//22 25//25 23//23
f 26//26 20//20 23//23
f 26//26 23//23 25//25
f 20//20 26//26 59//59
f 27//27 30//30 57//57
f 56//56 14//14 28//28
f 28//28 13//13 27//27
f 10//10 14//14 56//56
f 56//56 28//28 57//57
f 28//28 27//27 57//57
f 8//8 29//29 30//30
f 30//30 29//29 31//31
f 30//30 31//31 32//32
f 57//57 30//30 58//58
f 30//30 32//32 58//58
f 31//31 21//21 32//32
f 32//32 21//21 58//58
f 21//21 20//20 59//59
f 58//58 21//21 59//59
f 36//36 62//62 38//38
f 2//2 34//34 33//33
f 12//12 34//34 2//2
f 34//34 35//35 33//33
f 34//34 36//36 35//35
f 34//34 12//12 36//36
f 33//33 37//37 65//65
f 37//37 33//33 35//35
f 35//35 36//36 38//38
f 33//33 65//65 39//39
f 39//39 43//43 40//40
f 65//65 43//43 39//39
f 40//40 43//43 42//42
f 45//45 41//41 44//44
f 44//44 46//46 45//45
f 44//44 41//41 42//42
f 42//42 66//66 44//44
f 44//44 66//66 67//67
f 46//46 44//44 67//67
f 66//66 42//42 43//43
f 46//46 67//67 70//70
f 2//2 7//7 12//12
f 41//41 6//6 3//3
f 6//6 41//41 45//45
f 47//47 45//45 48//48
f 6//6 45//45 47//47
f 46//46 48//48 45//45
f 46//46 70//70 48//48
f 47//47 48//48 53//53
f 24//24 47//47 53//53
f 72//72 55//55 48//48
f 55//55 53//53 48//48
f 49//49 15//15 51//51
f 51//51 15//15 56//56
f 36//36 49//49 52//52
f 50//50 52//52 49//49
f 51//51 50//50 49//49
f 26//26 25//25 54//54
f 59//59 26//26 60//60
f 24//24 53//53 25//25
f 25//25 53//53 54//54
f 26//26 54//54 60//60
f 53//53 55//55 54//54
f 60//60 54//54 75//75
f 75//75 54//54 55//55
f 51//51 56//56 77//77
f 77//77 56//56 57//57
f 57//57 58//58 77//77
f 58//58 59//59 77//77
f 77//77 59//59 80//80
f 60//60 80//80 59//59
f 60//60 75//75 80//80
f 61//61 35//35 38//38
f 61//61 38//38 62//62
f 64//64 82//82 61//61
f 64//64 61//61 62//62
f 37//37 61//61 63//63
f 61//61 82//82 63//63
f 83//83 82//82 64//64
f 83//83 64//64 92//92
f 61//61 37//37 35//35
f 63//63 65//65 37//37
f 86//86 65//65 63//63
f 67//67 68//68 70//70
f 66//66 69//69 67//67
f 66//66 88//88 69//69
f 68//68 67//67 69//69
f 68//68 69//69 87//87
f 87//87 71//71 68//68
f 88//88 89//89 69//69
f 69//69 89//89 87//87
f 70//70 68//68 71//71
f 62//62 36//36 52//52
f 52//52 64//64 62//62
f 48//48 70//70 72//72
f 71//71 72//72 70//70
f 52//52 73//73 64//64
f 73//73 92//92 64//64
f 74//74 50//50 51//51
f 78//78 50//50 74//74
f 73//73 50//50 78//78
f 73//73 52//52 50//50
f 76//76 55//55 72//72
f 76//76 75//75 55//55
f 72//72 94//94 76//76
f 81//81 75//75 76//76
f 95//95 81//81 76//76
f 94//94 95//95 76//76
f 102//102 81//81 95//95
f 77//77 74//74 51//51
f 78//78 74//74 77//77
f 100//100 78//78 79//79
f 78//78 77//77 79//79
f 100//100 79//79 119//119
f 79//79 77//77 119//119
f 77//77 80//80 157//157
f 80//80 75//75 157//157
f 63//63 158//158 86//86
f 158//158 84//84 86//86
f 159//159 82//82 83//83
f 159//159 83//83 85//85
f 84//84 105//105 86//86
f 159//159 85//85 160//160
f 86//86 107//107 65//65
f 107//107 88//88 65//65
f 88//88 43//43 65//65
f 43//43 88//88 66//66
f 89//89 90//90 87//87
f 90//90 71//71 87//87
f 89//89 109//109 90//90
f 85//85 83//83 92//92
f 90//90 109//109 112//112
f 90//90 112//112 71//71
f 112//112 91//91 71//71
f 71//71 91//91 72//72
f 91//91 94//94 72//72
f 91//91 113//113 98//98
f 93//93 92//92 73//73
f 93//93 73//73 78//78
f 100//100 93//93 78//78
f 96//96 95//95 94//94
f 91//91 96//96 94//94
f 98//98 96//96 91//91
f 97//97 96//96 98//98
f 97//97 102//102 96//96
f 116//116 97//97 98//98
f 116//116 99//99 97//97
f 117//117 104//104 99//99
f 117//117 99//99 116//116
f 103//103 104//104 117//117
f 99//99 104//104 97//97
f 156//156 77//77 120//120
f 77//77 157//157 101//101
f 101//101 81//81 102//102
f 96//96 102//102 95//95
f 120//120 77//77 101//101
f 120//120 101//101 104//104
f 104//104 101//101 102//102
f 97//97 104//104 102//102
f 104//104 103//103 120//120
f 105//105 107//107 86//86
f 107//107 123//123 88//88
f 106//106 160//160 110//110
f 160//160 85//85 110//110
f 105//105 121//121 107//107
f 88//88 123//123 129//129
f 129//129 108//108 88//88
f 108//108 89//89 88//88
f 89//89 108//108 109//109
f 109//109 108//108 128//128
f 129//129 164//164 108//108
f 109//109 128//128 111//111
f 109//109 111//111 112//112
f 130//130 149//149 111//111
f 111//111 113//113 112//112
f 112//112 113//113 91//91
f 137//137 110//110 140//140
f 149//149 113//113 111//111
f 93//93 100//100 114//114
f 100//100 119//119 114//114
f 93//93 114//114 115//115
f 115//115 85//85 92//92
f 93//93 115//115 92//92
f 85//85 115//115 140//140
f 141//141 115//115 114//114
f 140//140 110//110 85//85
f 115//115 141//141 140//140
f 149//149 118//118 113//113
f 148//148 103//103 118//118
f 149//149 148//148 118//118
f 103//103 148//148 156//156
f 98//98 113//113 116//116
f 118//118 103//103 117//117
f 118//118 117//117 116//116
f 118//118 116//116 113//113
f 156//156 120//120 103//103
f 105//105 106//106 121//121
f 106//106 110//110 133//133
f 121//121 106//106 122//122
f 122//122 106//106 133//133
f 161//161 123//123 107//107
f 133//133 124//124 122//122
f 122//122 124//124 121//121
f 127//127 162//162 121//121
f 127//127 121//121 124//124
f 127//127 124//124 125//125
f 123//123 126//126 129//129
f 163//163 126//126 123//123
f 131//131 126//126 163//163
f 132//132 165//165 127//127
f 127//127 125//125 134//134
f 127//127 134//134 135//135
f 132//132 127//127 135//135
f 130//130 111//111 128//128
f 126//126 131//131 129//129
f 131//131 164//164 129//129
f 165//165 132//132 128//128
f 128//128 132//132 130//130
f 130//130 132//132 136//136
f 138//138 124//124 133//133
f 137//137 138//138 133//133
f 124//124 138//138 125//125
f 134//134 139//139 135//135
f 134//134 125//125 139//139
f 136//136 132//132 135//135
f 110//110 137//137 133//133
f 125//125 138//138 139//139
f 136//136 149//149 130//130
f 139//139 136//136 135//135
f 137//137 143//143 138//138
f 138//138 143//143 145//145
f 138//138 145//145 139//139
f 136//136 139//139 146//146
f 145//145 146//146 139//139
f 147//147 136//136 146//146
f 142//142 137//137 140//140
f 141//141 114//114 152//152
f 137//137 142//142 143//143
f 141//141 142//142 140//140
f 142//142 141//141 143//143
f 166//166 152//152 144//144
f 141//141 152//152 166//166
f 166//166 144//144 167//167
f 144//144 154//154 155//155
f 168//168 167//167 144//144
f 148//148 151//151 156//156
f 151//151 147//147 146//146
f 156//156 151//151 146//146
f 151//151 148//148 149//149
f 149//149 150//150 151//151
f 149//149 136//136 150//150
f 136//136 147//147 150//150
f 150//150 147//147 151//151
f 152//152 114//114 119//119
f 152//152 119//119 153//153
f 119//119 77//77 153//153
f 152//152 153//153 154//154
f 144//144 152//152 154//154
f 153//153 77//77 156//156
f 155//155 154//154 153//153
f 153//153 156//156 155//155
f 146//146 167//167 168//168
f 156//156 146//146 168//168
