# Wavafront OBJ file of BodyParts3D
# BodyParts3D, Copyright(C) 2010-2011 The Database Center for Life Science licensed under CC Attribution-Share Alike 2.1 Japan.
vn -0.945168 0.234098 -0.227717
v 23.4351 -118.794 1268.39
vn -0.884343 0.465383 0.0368274
v 23.5923 -118.252 1268.76
vn -0.748854 0.54967 -0.370244
v 23.8411 -118.092 1268.16
vn -0.963651 -0.103495 -0.246303
v 23.4184 -119.414 1268.3
vn -0.848297 -0.384306 -0.36428
v 23.5954 -119.98 1268.2
vn -0.895362 -0.438249 -0.079146
v 23.5297 -120.098 1268.8
vn -0.795957 -0.152637 -0.585793
v 23.771 -119.522 1267.65
vn -0.693997 -0.664454 -0.277252
v 23.9284 -120.575 1268.39
vn -0.783686 0.200645 -0.587858
v 23.7459 -118.905 1267.69
vn -0.569948 -0.48953 -0.659939
v 24.0677 -120.054 1267.55
vn -0.513792 -0.00243639 -0.857912
v 24.1686 -119.342 1267.24
vn -0.368657 -0.860181 -0.352393
v 24.6762 -121.024 1268.27
vn -0.726425 0.478464 0.493335
v 23.941 -118.285 1269.95
vn -0.982524 0.0794427 0.168334
v 23.362 -119.273 1269.24
vn -0.949512 -0.282049 0.137387
v 23.4489 -119.863 1269.14
vn -0.854726 -0.49959 0.140905
v 23.56 -120.14 1269.09
vn -0.671939 -0.733944 0.0991151
v 23.9309 -120.65 1268.99
vn -0.868346 -0.112463 0.483039
v 23.5876 -119.616 1269.78
vn -0.796927 -0.48277 0.363098
v 23.7692 -120.18 1269.68
vn -0.701521 -0.329547 0.631875
v 23.8416 -119.902 1270.02
vn -0.566537 -0.645351 0.512405
v 24.1359 -120.434 1269.92
vn -0.311151 -0.912341 0.26612
v 24.7127 -121.026 1269.49
vn -0.519571 0.0253905 0.85405
v 24.2394 -119.248 1270.54
vn -0.449833 -0.422891 0.786647
v 24.4816 -120.112 1270.45
vn -0.666538 0.745276 0.0170589
v 24.0577 -117.689 1268.81
vn -0.463357 0.514719 -0.721363
v 24.4617 -118.045 1267.52
vn -0.431378 0.827433 -0.359536
v 24.3348 -117.63 1268.19
vn -0.298244 0.940688 0.161727
v 24.6037 -117.382 1269.12
vn -0.0981582 0.713058 -0.694199
v 25.2983 -117.803 1267.47
vn -0.0554166 0.953003 -0.29785
v 25.1928 -117.358 1268.17
vn -0.262537 -0.404555 -0.876019
v 25.267 -119.941 1266.99
vn -0.156995 0.230843 -0.960242
v 25.2208 -118.684 1266.95
vn -0.133399 0.163963 -0.977405
v 25.9591 -119.095 1266.87
vn -0.300899 -0.181606 -0.936205
v 26.207 -119.97 1266.85
vn -0.0707871 0.513639 -0.855081
v 26.0247 -118.19 1267.22
vn -0.330593 -0.71199 -0.619499
v 25.8722 -120.912 1267.6
vn -0.0732985 0.635763 0.768396
v 25.0691 -117.806 1270.24
vn -0.237855 -0.689506 0.68411
v 24.9238 -120.589 1270.27
vn -0.118958 -0.368627 0.921935
v 25.0778 -119.988 1270.7
vn -0.128144 0.0791273 0.988594
v 25.2123 -119.346 1270.86
vn 0.127862 0.442651 0.887531
v 26.4471 -119.306 1270.79
vn -0.256899 -0.95803 -0.12721
v 25.7072 -121.308 1268.77
vn 0.0184071 -0.715732 0.698132
v 26.5959 -121.017 1269.96
vn 0.108497 0.858606 -0.501024
v 26.6836 -117.772 1267.7
vn 0.271746 0.944031 0.186976
v 26.8095 -117.477 1268.95
vn -0.321556 0.147046 -0.935403
v 26.9697 -119.391 1266.55
vn -0.205063 -0.947262 0.246261
v 29.703 -122.337 1267.41
vn 0.325464 0.687157 0.649529
v 28.219 -119.021 1270.16
vn 0.285744 -0.284163 0.915206
v 28.3354 -120.544 1270.03
vn -0.318271 0.151771 -0.935772
v 29.9693 -120.213 1265.15
vn -0.432957 -0.451426 -0.780232
v 31.3887 -121.958 1264.75
vn -0.40161 -0.848854 -0.343738
v 31.869 -122.872 1265.35
vn 0.0672898 -0.69201 0.718745
v 31.54 -122.151 1268.02
vn -0.351373 -0.931146 -0.0974905
v 32.7011 -123.352 1265.83
vn 0.272757 0.928431 -0.252228
v 34.261 -119.989 1265.31
vn 0.911734 0.326589 -0.249159
v 34.4383 -120.296 1265.55
vn -0.319427 -0.7996 -0.508533
v 32.9934 -123.198 1264.92
vn -0.329937 -0.668919 -0.6661
v 33.2318 -122.981 1264.51
vn -0.155113 -0.874417 -0.459712
v 33.3164 -123.24 1264.89
vn -0.231849 -0.0457039 -0.971678
v 33.3217 -122.247 1264.05
vn 0.52151 -0.486715 -0.700811
v 33.5699 -122.547 1264.37
vn -0.0458574 0.543456 -0.838184
v 33.7936 -120.584 1264.32
vn 0.808302 0.320361 -0.493981
v 34.06 -121.127 1264.24
vn 0.431144 0.735284 0.522945
v 34.1999 -120.664 1267.34
vn 0.395912 0.918211 0.011964
v 33.9244 -119.773 1265.97
vn 0.468616 0.83916 0.276061
v 34.463 -120.132 1266.49
vn -0.307985 -0.921475 -0.236703
v 33.0819 -123.451 1265.49
vn 0.00515594 -0.996717 0.0807962
v 33.1069 -123.477 1266.09
vn -0.0959014 -0.948936 0.300538
v 33.0958 -123.405 1266.4
vn -0.104794 -0.886052 0.451586
v 33.0661 -123.266 1266.73
vn 0.226675 -0.404858 0.885838
v 32.6953 -121.827 1268
vn 0.411605 -0.910902 -0.0289602
v 33.3868 -123.364 1266.09
vn 0.0919399 -0.946995 0.307812
v 33.3883 -123.306 1266.69
vn -0.0488978 -0.793369 0.606774
v 33.3412 -123.104 1267.04
vn 0.889478 -0.452026 0.0670926
v 33.7716 -122.633 1267.08
vn 0.27057 -0.378573 0.885141
v 33.7801 -122.397 1267.57
vn 0.457863 -0.0848452 0.884965
v 33.8337 -121.467 1267.75
vn 0.926936 -0.371151 0.0550983
v 34.1378 -121.655 1267.5
vn 0.981429 -0.166297 0.0956184
v 34.3625 -120.876 1266.99
vn 0.161551 -0.294853 0.941787
v 26.4471 -119.306 1270.79
vn 0.380447 -0.0498189 0.92346
v 28.219 -119.021 1270.16
vn 0.854292 0.366406 -0.368689
v 34.261 -119.989 1265.31
vn 0.973643 -0.224687 -0.0391754
v 34.4383 -120.296 1265.55
vn 0.46381 -0.582224 -0.667754
v 33.2318 -122.981 1264.51
vn 0.562732 -0.619467 -0.547351
v 33.3164 -123.24 1264.89
vn 0.92125 -0.379246 -0.086429
v 33.3164 -123.24 1264.89
vn 0.481479 -0.868417 -0.118446
v 33.3164 -123.24 1264.89
vn 0.491996 -0.411228 -0.767354
v 33.3217 -122.247 1264.05
vn 0.92797 -0.363854 -0.0805122
v 33.5699 -122.547 1264.37
vn 0.693182 0.424005 -0.582854
v 33.7936 -120.584 1264.32
vn 0.614551 -0.278664 -0.73802
v 34.06 -121.127 1264.24
vn 0.0231319 0.153992 -0.987801
v 34.06 -121.127 1264.24
vn 0.943775 -0.321538 -0.0768221
v 34.06 -121.127 1264.24
vn 0.705673 0.0911165 0.702655
v 34.1999 -120.664 1267.34
vn 0.982949 -0.00817584 0.183697
v 34.463 -120.132 1266.49
vn 0.894577 0.435484 -0.100425
v 34.463 -120.132 1266.49
vn 0.428301 -0.899451 -0.086867
v 33.0819 -123.451 1265.49
vn 0.897177 -0.441077 -0.0229129
v 33.3868 -123.364 1266.09
vn 0.769846 -0.584434 0.256466
v 33.3883 -123.306 1266.69
vn 0.667424 -0.640808 0.379355
v 33.3412 -123.104 1267.04
vn 0.802587 -0.542569 0.247935
v 33.7801 -122.397 1267.57
vn 0.732101 -0.0359515 0.680246
v 34.1378 -121.655 1267.5
f 14//14 2//2 1//1
f 1//1 3//3 9//9
f 1//1 9//9 4//4
f 2//2 3//3 1//1
f 3//3 2//2 25//25
f 2//2 13//13 25//25
f 3//3 26//26 9//9
f 27//27 3//3 25//25
f 7//7 10//10 5//5
f 7//7 5//5 4//4
f 5//5 6//6 4//4
f 5//5 8//8 6//6
f 6//6 8//8 17//17
f 1//1 4//4 14//14
f 4//4 15//15 14//14
f 4//4 6//6 15//15
f 6//6 16//16 15//15
f 6//6 17//17 16//16
f 9//9 11//11 7//7
f 4//4 9//9 7//7
f 11//11 31//31 10//10
f 7//7 11//11 10//10
f 5//5 10//10 8//8
f 8//8 12//12 17//17
f 10//10 12//12 8//8
f 9//9 26//26 11//11
f 26//26 32//32 11//11
f 32//32 31//31 11//11
f 12//12 10//10 31//31
f 12//12 36//36 42//42
f 18//18 13//13 14//14
f 14//14 13//13 2//2
f 23//23 13//13 18//18
f 37//37 13//13 23//23
f 37//37 23//23 40//40
f 16//16 19//19 15//15
f 16//16 17//17 19//19
f 14//14 15//15 18//18
f 15//15 19//19 18//18
f 23//23 18//18 20//20
f 20//20 18//18 19//19
f 17//17 21//21 19//19
f 21//21 20//20 19//19
f 22//22 17//17 12//12
f 17//17 22//22 21//21
f 38//38 21//21 22//22
f 20//20 21//21 24//24
f 23//23 20//20 24//24
f 21//21 38//38 24//24
f 42//42 22//22 12//12
f 24//24 38//38 39//39
f 24//24 39//39 23//23
f 27//27 25//25 28//28
f 28//28 25//25 13//13
f 3//3 27//27 26//26
f 27//27 29//29 26//26
f 28//28 30//30 27//27
f 30//30 29//29 27//27
f 26//26 29//29 32//32
f 29//29 30//30 44//44
f 45//45 30//30 28//28
f 29//29 35//35 32//32
f 29//29 44//44 35//35
f 30//30 45//45 44//44
f 31//31 32//32 34//34
f 12//12 31//31 36//36
f 32//32 33//33 34//34
f 34//34 36//36 31//31
f 34//34 33//33 46//46
f 32//32 35//35 33//33
f 28//28 13//13 37//37
f 45//45 28//28 37//37
f 41//41 37//37 40//40
f 39//39 38//38 43//43
f 40//40 23//23 39//39
f 38//38 22//22 43//43
f 80//80 39//39 43//43
f 40//40 39//39 80//80
f 43//43 22//22 47//47
f 46//46 50//50 34//34
f 50//50 51//51 34//34
f 35//35 50//50 46//46
f 44//44 55//55 62//62
f 55//55 44//44 45//45
f 46//46 33//33 35//35
f 62//62 35//35 44//44
f 45//45 65//65 55//55
f 42//42 36//36 52//52
f 47//47 22//22 42//42
f 42//42 52//52 47//47
f 51//51 52//52 36//36
f 37//37 48//48 45//45
f 41//41 48//48 37//37
f 43//43 49//49 80//80
f 49//49 81//81 80//80
f 64//64 45//45 48//48
f 49//49 94//94 81//81
f 53//53 49//49 43//43
f 34//34 51//51 36//36
f 62//62 50//50 35//35
f 57//57 52//52 51//51
f 52//52 57//57 67//67
f 49//49 53//53 71//71
f 43//43 47//47 53//53
f 52//52 54//54 47//47
f 69//69 70//70 47//47
f 54//54 68//68 47//47
f 47//47 68//68 69//69
f 52//52 67//67 54//54
f 70//70 74//74 47//47
f 68//68 54//54 67//67
f 47//47 74//74 53//53
f 56//56 63//63 82//82
f 90//90 82//82 63//63
f 60//60 58//58 51//51
f 57//57 51//51 58//58
f 57//57 58//58 59//59
f 59//59 67//67 57//57
f 50//50 60//60 51//51
f 84//84 88//88 61//61
f 84//84 61//61 85//85
f 62//62 60//60 50//50
f 89//89 75//75 86//86
f 61//61 88//88 91//91
f 92//92 60//60 62//62
f 89//89 93//93 75//75
f 75//75 93//93 79//79
f 66//66 65//65 45//45
f 55//55 65//65 66//66
f 79//79 93//93 83//83
f 64//64 66//66 45//45
f 95//95 79//79 83//83
f 95//95 94//94 79//79
f 82//82 96//96 56//56
f 87//87 72//72 97//97
f 72//72 68//68 97//97
f 72//72 73//73 68//68
f 73//73 69//69 68//68
f 73//73 70//70 69//69
f 74//74 70//70 73//73
f 53//53 76//76 71//71
f 76//76 53//53 74//74
f 86//86 75//75 98//98
f 98//98 75//75 99//99
f 75//75 100//100 99//99
f 77//77 71//71 76//76
f 75//75 79//79 78//78
f 101//101 75//75 78//78
f 75//75 101//101 100//100
f 77//77 49//49 71//71
f 94//94 49//49 77//77
f 102//102 77//77 76//76
f 102//102 94//94 77//77
f 79//79 94//94 102//102
